<svg width="27" height="27" viewBox="0 0 27 27" fill="none" xmlns="http://www.w3.org/2000/svg">
<g clip-path="url(#clip0_158_229)">
<path d="M26.9767 13.4884C26.9767 6.03894 20.9378 0 13.4884 0C6.03894 0 0 6.03894 0 13.4884C0 20.2207 4.93248 25.801 11.3808 26.8129V17.3874H7.95603V13.4884H11.3808V10.5167C11.3808 7.13619 13.3946 5.2689 16.4756 5.2689C17.9509 5.2689 19.4949 5.53234 19.4949 5.53234V8.85174H17.7941C16.1186 8.85174 15.5959 9.89156 15.5959 10.9593V13.4884H19.3368L18.7388 17.3874H15.5959V26.8129C22.0443 25.801 26.9767 20.2207 26.9767 13.4884Z" fill="white"/>
</g>
<defs>
<clipPath id="clip0_158_229">
<rect width="26.9767" height="26.9767" fill="white"/>
</clipPath>
</defs>
</svg>
