<svg width="107" height="54" viewBox="0 0 107 54" fill="none" xmlns="http://www.w3.org/2000/svg">
<path d="M2.89132 39.9609L51.1321 2.05746V39.9609H2.89132Z" stroke="#DEA900" stroke-width="2"/>
<path d="M32.6809 39.9609L80.9217 2.05746V39.9609H32.6809Z" stroke="#DEA900" stroke-width="2"/>
<rect x="82.9219" y="41.9609" width="10.5391" height="10.5391" stroke="#DEA900" stroke-width="2"/>
<mask id="path-4-inside-1_82_145" fill="white">
<path fill-rule="evenodd" clip-rule="evenodd" d="M94.4609 31.7656C101.386 31.7656 107 26.1517 107 19.2266C107 12.3014 101.386 6.6875 94.4609 6.6875V31.7656Z"/>
</mask>
<path d="M94.4609 31.7656H92.4609V33.7656H94.4609V31.7656ZM94.4609 6.6875V4.6875H92.4609V6.6875H94.4609ZM105 19.2266C105 25.0471 100.282 29.7656 94.4609 29.7656V33.7656C102.491 33.7656 109 27.2563 109 19.2266H105ZM94.4609 8.6875C100.282 8.6875 105 13.406 105 19.2266H109C109 11.1969 102.491 4.6875 94.4609 4.6875V8.6875ZM92.4609 6.6875V31.7656H96.4609V6.6875H92.4609Z" fill="#DEA900" mask="url(#path-4-inside-1_82_145)"/>
</svg>
