<svg width="15" height="15" viewBox="0 0 15 15" fill="none" xmlns="http://www.w3.org/2000/svg">
<path fill-rule="evenodd" clip-rule="evenodd" d="M1.71513 1.83341C1.49888 3.32878 1.28573 7.36733 4.45928 10.5409C7.63282 13.7144 11.6714 13.5013 13.1667 13.285V10.2251L10.0247 9.70145L9.55029 10.6502C9.43031 10.8902 9.18504 11.0417 8.91674 11.0417V10.3334C8.91674 11.0417 8.91639 11.0417 8.91603 11.0417L8.91529 11.0417L8.9137 11.0417L8.91013 11.0417L8.90139 11.0416C8.89486 11.0415 8.88693 11.0413 8.87765 11.041C8.85908 11.0404 8.83507 11.0394 8.80598 11.0374C8.74783 11.0335 8.66922 11.0262 8.57308 11.0125C8.38091 10.985 8.11766 10.9318 7.80733 10.8283C7.18421 10.6206 6.37741 10.2125 5.58254 9.41761C4.78768 8.62275 4.37955 7.81595 4.17184 7.19283C4.0684 6.88249 4.01512 6.61924 3.98766 6.42708C3.97393 6.33093 3.96662 6.25232 3.96275 6.19417C3.96081 6.16508 3.95972 6.14108 3.95912 6.12251C3.95882 6.11322 3.95865 6.10529 3.95854 6.09876L3.95844 6.09002L3.95842 6.08645L3.95841 6.08487L3.95841 6.08412C3.95841 6.08377 3.95841 6.08341 4.66674 6.08341H3.95841C3.95841 5.84658 4.07677 5.62542 4.27383 5.49405L5.92062 4.39619L4.89551 1.83341H1.71513ZM5.42724 6.42773L6.70644 5.57492C7.26386 5.20332 7.48476 4.49206 7.23596 3.87005L6.21085 1.30728C5.99571 0.769429 5.47479 0.416748 4.89551 0.416748H1.67813C1.0346 0.416748 0.428846 0.863821 0.323202 1.56205C0.0828576 3.15056 -0.244284 7.84079 3.45754 11.5426C7.15937 15.2444 11.8496 14.9173 13.4381 14.677C14.1363 14.5713 14.5834 13.9656 14.5834 13.322V10.2251C14.5834 9.53261 14.0827 8.94159 13.3996 8.82774L10.2576 8.30406C9.6441 8.20181 9.03569 8.51163 8.75756 9.0679L8.51213 9.55876C8.43498 9.53983 8.34887 9.51553 8.25532 9.48435C7.81595 9.33789 7.20608 9.03768 6.58428 8.41588C5.96248 7.79408 5.66227 7.18421 5.51581 6.74484C5.47623 6.62611 5.44774 6.51936 5.42724 6.42773Z" fill="white"/>
</svg>
