<svg width="27" height="27" viewBox="0 0 27 27" fill="none" xmlns="http://www.w3.org/2000/svg">
<g clip-path="url(#clip0_158_230)">
<path d="M8.48661 24.4477C18.664 24.4477 24.2322 16.0138 24.2322 8.70217C24.2322 8.46507 24.2269 8.2227 24.2164 7.9856C25.2995 7.20226 26.2343 6.23199 26.9767 5.12037C25.968 5.5692 24.8969 5.86233 23.8001 5.98974C24.9549 5.29753 25.8196 4.2101 26.2338 2.92904C25.1474 3.57287 23.9594 4.02704 22.7205 4.27208C21.8858 3.38516 20.7822 2.79792 19.5803 2.60114C18.3783 2.40436 17.1451 2.60901 16.0711 3.18344C14.9971 3.75787 14.1423 4.67009 13.6388 5.77907C13.1353 6.88804 13.0111 8.13201 13.2855 9.31863C11.0857 9.20824 8.93373 8.6368 6.96897 7.64135C5.00422 6.6459 3.27059 5.24867 1.88047 3.54023C1.17394 4.75837 0.957738 6.19983 1.27581 7.57165C1.59388 8.94347 2.42236 10.1427 3.59286 10.9256C2.71412 10.8977 1.85462 10.6611 1.08539 10.2354V10.3039C1.08461 11.5823 1.52654 12.8214 2.33608 13.8108C3.14563 14.8001 4.27281 15.4786 5.52602 15.7309C4.712 15.9536 3.85765 15.986 3.02909 15.8257C3.38272 16.9251 4.07076 17.8867 4.99718 18.5762C5.92361 19.2657 7.04219 19.6488 8.19682 19.672C6.2366 21.2118 3.81516 22.047 1.32249 22.043C0.880439 22.0423 0.438821 22.0152 0 21.9619C2.53228 23.5865 5.478 24.4493 8.48661 24.4477Z" fill="white"/>
</g>
<defs>
<clipPath id="clip0_158_230">
<rect width="26.9767" height="26.9767" fill="white"/>
</clipPath>
</defs>
</svg>
