<svg width="27" height="27" viewBox="0 0 27 27" fill="none" xmlns="http://www.w3.org/2000/svg">
<g clip-path="url(#clip0_158_232)">
<path d="M26.708 8.09296C26.708 8.09296 26.4446 6.23304 25.6332 5.41636C24.6057 4.3415 23.4571 4.33623 22.9302 4.27301C19.1577 3.99902 13.4936 3.99902 13.4936 3.99902H13.4831C13.4831 3.99902 7.81904 3.99902 4.04651 4.27301C3.51962 4.33623 2.371 4.3415 1.34357 5.41636C0.532158 6.23304 0.273983 8.09296 0.273983 8.09296C0.273983 8.09296 0 10.2795 0 12.4609V14.5052C0 16.6865 0.268714 18.8731 0.268714 18.8731C0.268714 18.8731 0.532158 20.733 1.3383 21.5497C2.36573 22.6246 3.71457 22.5877 4.31523 22.7036C6.47547 22.9091 13.4884 22.9723 13.4884 22.9723C13.4884 22.9723 19.1577 22.9618 22.9302 22.6931C23.4571 22.6298 24.6057 22.6246 25.6332 21.5497C26.4446 20.733 26.708 18.8731 26.708 18.8731C26.708 18.8731 26.9767 16.6918 26.9767 14.5052V12.4609C26.9767 10.2795 26.708 8.09296 26.708 8.09296ZM10.7011 16.9869V9.40491L17.988 13.2091L10.7011 16.9869Z" fill="white"/>
</g>
<defs>
<clipPath id="clip0_158_232">
<rect width="26.9767" height="26.9767" fill="white"/>
</clipPath>
</defs>
</svg>
