<svg width="27" height="27" viewBox="0 0 27 27" fill="none" xmlns="http://www.w3.org/2000/svg">
<path d="M13.4884 2.42896C17.0923 2.42896 17.5191 2.44477 18.9364 2.50799C20.2536 2.56595 20.9649 2.78725 21.4391 2.97166C22.0661 3.21403 22.5193 3.50908 22.9882 3.97802C23.4624 4.45222 23.7522 4.90007 23.9945 5.52707C24.179 6.00127 24.4003 6.71784 24.4582 8.0298C24.5214 9.4524 24.5372 9.87918 24.5372 13.4778C24.5372 17.0818 24.5214 17.5085 24.4582 18.9259C24.4003 20.2431 24.179 20.9544 23.9945 21.4286C23.7522 22.0556 23.4571 22.5087 22.9882 22.9777C22.514 23.4519 22.0661 23.7416 21.4391 23.984C20.9649 24.1684 20.2484 24.3897 18.9364 24.4477C17.5138 24.5109 17.087 24.5267 13.4884 24.5267C9.88445 24.5267 9.45767 24.5109 8.04033 24.4477C6.72311 24.3897 6.01181 24.1684 5.53761 23.984C4.91061 23.7416 4.45749 23.4466 3.98855 22.9777C3.51435 22.5035 3.22456 22.0556 2.98219 21.4286C2.79778 20.9544 2.57649 20.2378 2.51853 18.9259C2.45531 17.5033 2.4395 17.0765 2.4395 13.4778C2.4395 9.87391 2.45531 9.44713 2.51853 8.0298C2.57649 6.71257 2.79778 6.00127 2.98219 5.52707C3.22456 4.90007 3.51962 4.44695 3.98855 3.97802C4.46275 3.50382 4.91061 3.21403 5.53761 2.97166C6.01181 2.78725 6.72838 2.56595 8.04033 2.50799C9.45767 2.44477 9.88445 2.42896 13.4884 2.42896ZM13.4884 0C9.82649 0 9.3681 0.0158067 7.92969 0.0790334C6.49655 0.14226 5.51126 0.374091 4.6577 0.706032C3.76726 1.05378 3.01381 1.51217 2.26563 2.26562C1.51217 3.01381 1.05378 3.76726 0.706032 4.65243C0.374092 5.51126 0.14226 6.49128 0.0790334 7.92442C0.0158067 9.3681 0 9.82649 0 13.4884C0 17.1503 0.0158067 17.6086 0.0790334 19.0471C0.14226 20.4802 0.374092 21.4655 0.706032 22.319C1.05378 23.2095 1.51217 23.9629 2.26563 24.7111C3.01381 25.4593 3.76726 25.923 4.65243 26.2654C5.51126 26.5974 6.49128 26.8292 7.92442 26.8924C9.36283 26.9557 9.82122 26.9715 13.4831 26.9715C17.145 26.9715 17.6034 26.9557 19.0418 26.8924C20.4749 26.8292 21.4602 26.5974 22.3138 26.2654C23.1989 25.923 23.9524 25.4593 24.7006 24.7111C25.4488 23.9629 25.9124 23.2095 26.2549 22.3243C26.5868 21.4655 26.8187 20.4855 26.8819 19.0523C26.9451 17.6139 26.9609 17.1555 26.9609 13.4936C26.9609 9.83176 26.9451 9.37336 26.8819 7.93496C26.8187 6.50182 26.5868 5.51653 26.2549 4.66297C25.923 3.76726 25.4646 3.01381 24.7111 2.26562C23.9629 1.51744 23.2095 1.05378 22.3243 0.711301C21.4655 0.37936 20.4855 0.147529 19.0523 0.0843023C17.6086 0.0158067 17.1503 0 13.4884 0Z" fill="white"/>
<path d="M13.4882 6.55981C9.66295 6.55981 6.55957 9.66319 6.55957 13.4884C6.55957 17.3136 9.66295 20.417 13.4882 20.417C17.3134 20.417 20.4168 17.3136 20.4168 13.4884C20.4168 9.66319 17.3134 6.55981 13.4882 6.55981ZM13.4882 17.9828C11.0065 17.9828 8.9938 15.9701 8.9938 13.4884C8.9938 11.0068 11.0065 8.99404 13.4882 8.99404C15.9698 8.99404 17.9825 11.0068 17.9825 13.4884C17.9825 15.9701 15.9698 17.9828 13.4882 17.9828Z" fill="white"/>
<path d="M22.3083 6.28577C22.3083 7.18148 21.5812 7.90332 20.6908 7.90332C19.7951 7.90332 19.0732 7.17621 19.0732 6.28577C19.0732 5.39005 19.8004 4.66821 20.6908 4.66821C21.5812 4.66821 22.3083 5.39532 22.3083 6.28577Z" fill="white"/>
</svg>
