<svg width="27" height="27" viewBox="0 0 27 27" fill="none" xmlns="http://www.w3.org/2000/svg">
<g clip-path="url(#clip0_158_228)">
<path fill-rule="evenodd" clip-rule="evenodd" d="M1.89287 1.89287C0 3.78574 0 6.83321 0 12.9264V14.0504C0 20.1426 0 23.191 1.89287 25.0839C3.78573 26.9767 6.8332 26.9767 12.9263 26.9767H12.9264H14.0504H14.0504C20.1426 26.9767 23.191 26.9767 25.0839 25.0839C26.9767 23.191 26.9767 20.1435 26.9767 14.0504V14.0504V12.9264V12.9263C26.9767 6.8341 26.9767 3.78573 25.0839 1.89287C23.191 0 20.1435 0 14.0504 0H12.9264C6.83411 0 3.78574 0 1.89287 1.89287ZM5.33956 8.43023H7.30616C7.80883 8.43023 7.99767 8.65054 8.1865 9.19547C9.14867 11.9975 10.7709 14.4469 11.4372 14.4469C11.6881 14.4469 11.8023 14.3318 11.8023 13.6961V10.7997C11.7573 9.97516 11.4692 9.61849 11.2558 9.35433C11.1241 9.19125 11.0209 9.06343 11.0209 8.88254C11.0209 8.66223 11.2088 8.43023 11.5208 8.43023H14.6124C15.0296 8.43023 15.1744 8.65323 15.1744 9.1532V13.0504C15.1744 13.4668 15.3551 13.6134 15.4801 13.6134C15.7301 13.6134 15.9387 13.4668 16.3973 13.0082C17.8145 11.4246 18.8144 8.98685 18.8144 8.98685C18.9394 8.6946 19.1705 8.43023 19.6705 8.43023H21.6371C22.2324 8.43023 22.3583 8.73686 22.2324 9.1532C21.9824 10.2997 19.586 13.6754 19.586 13.6754C19.3774 14.009 19.2937 14.1754 19.586 14.5504C19.6891 14.6948 19.9091 14.9105 20.1607 15.1571C20.418 15.4093 20.7083 15.6938 20.9402 15.9675C21.7855 16.918 22.4221 17.7201 22.5993 18.2722C22.762 18.8271 22.4806 19.1085 21.9186 19.1085H19.9511C19.4243 19.1085 19.1593 18.8135 18.5862 18.1756C18.3433 17.9052 18.0451 17.5733 17.6481 17.1761C16.4801 16.0512 15.981 15.9055 15.6887 15.9055C15.2931 15.9055 15.1744 16.0179 15.1744 16.5799V18.3442C15.1744 18.8271 15.0197 19.1085 13.7689 19.1085C11.6854 19.1085 9.39506 17.8433 7.77016 15.5089C5.33147 12.0919 4.66514 9.5075 4.66514 8.98685C4.66514 8.6946 4.77754 8.43023 5.33956 8.43023Z" fill="white"/>
</g>
<defs>
<clipPath id="clip0_158_228">
<rect width="26.9767" height="26.9767" fill="white"/>
</clipPath>
</defs>
</svg>
